<?xml version="1.0" ?><svg viewBox="0 0 64 64" xmlns="http://www.w3.org/2000/svg"><defs><style>.cls-1{fill:none;stroke:#000;stroke-linejoin:round;stroke-width:2px;}</style></defs><title/><g data-name="Layer 22" id="Layer_22"><rect class="cls-1" height="6" width="60" x="2" y="56"/><polyline class="cls-1" points="4 56 4 52 60 52 60 56"/><rect class="cls-1" height="4" width="60" x="2" y="18"/><polyline class="cls-1" points="4 18 32 2 60 18"/><circle class="cls-1" cx="32" cy="11" r="3"/><polyline class="cls-1" points="6 52 6 48 16 48 16 52"/><polyline class="cls-1" points="6 22 6 26 16 26 16 22"/><line class="cls-1" x1="8" x2="8" y1="26" y2="48"/><line class="cls-1" x1="14" x2="14" y1="26" y2="48"/><polyline class="cls-1" points="48 52 48 48 58 48 58 52"/><polyline class="cls-1" points="48 22 48 26 58 26 58 22"/><line class="cls-1" x1="50" x2="50" y1="26" y2="48"/><line class="cls-1" x1="56" x2="56" y1="26" y2="48"/><path class="cls-1" d="M27.707,32.707h0A4.414,4.414,0,0,1,29,35.828v.758A3.415,3.415,0,0,1,28,39h0a3.415,3.415,0,0,1-2.414,1H24.414A3.415,3.415,0,0,1,22,39h0a3.415,3.415,0,0,1-1-2.414v-.758a4.414,4.414,0,0,1,1.293-3.121h0A2.414,2.414,0,0,0,23,31h0a2.414,2.414,0,0,0-.707-1.707L21,28h8l-1.293,1.293A2.414,2.414,0,0,0,27,31h0A2.414,2.414,0,0,0,27.707,32.707Z"/><path class="cls-1" d="M41.707,32.707h0A4.414,4.414,0,0,1,43,35.828v.758A3.415,3.415,0,0,1,42,39h0a3.415,3.415,0,0,1-2.414,1H38.414A3.415,3.415,0,0,1,36,39h0a3.415,3.415,0,0,1-1-2.414v-.758a4.414,4.414,0,0,1,1.293-3.121h0A2.414,2.414,0,0,0,37,31h0a2.414,2.414,0,0,0-.707-1.707L35,28h8l-1.293,1.293A2.414,2.414,0,0,0,41,31h0A2.414,2.414,0,0,0,41.707,32.707Z"/><rect class="cls-1" height="4" width="10" x="20" y="40"/><line class="cls-1" x1="22" x2="22" y1="44" y2="52"/><line class="cls-1" x1="28" x2="28" y1="44" y2="52"/><rect class="cls-1" height="4" width="10" x="34" y="40"/><line class="cls-1" x1="36" x2="36" y1="44" y2="52"/><line class="cls-1" x1="42" x2="42" y1="44" y2="52"/><line class="cls-1" x1="29" x2="21" y1="36" y2="36"/><line class="cls-1" x1="43" x2="35" y1="36" y2="36"/></g></svg>