<?xml version="1.0" ?><!DOCTYPE svg  PUBLIC '-//W3C//DTD SVG 1.1//EN'  'http://www.w3.org/Graphics/SVG/1.1/DTD/svg11.dtd'><svg enable-background="new 0 0 24 24" height="24px" id="Layer_1" version="1.1" viewBox="0 0 24 24" width="24px" xml:space="preserve" xmlns="http://www.w3.org/2000/svg" xmlns:xlink="http://www.w3.org/1999/xlink"><g><path d="M22.9,9H21V7.1C21,6.5,20.5,6,19.9,6H18V4.1C18,3.5,17.5,3,16.9,3H15V1.1C15,0.5,14.5,0,13.9,0H1.1C0.5,0,0,0.5,0,1.1v12.8   C0,14.5,0.5,15,1.1,15H3v1.9C3,17.5,3.5,18,4.1,18H6v1.9C6,20.5,6.5,21,7.1,21H9v1.9c0,0.6,0.5,1.1,1.1,1.1h12.8   c0.6,0,1.1-0.5,1.1-1.1V10.1C24,9.5,23.5,9,22.9,9z M3,4.1V13H2V2h11v1H4.1C3.5,3,3,3.5,3,4.1z M6,7.1V16H5V5h11v1H7.1   C6.5,6,6,6.5,6,7.1z M9,10.1V19H8V8h11v1h-8.9C9.5,9,9,9.5,9,10.1z M22,22H11V11h11V22z"/><rect height="1" width="7" x="13" y="13"/><rect height="1" width="7" x="13" y="15"/><rect height="1" width="7" x="13" y="17"/><rect height="1" width="7" x="13" y="19"/></g></svg>